<?xml version="1.0" encoding="UTF-8" standalone="no"?>
<!-- Created with Inkscape (http://www.inkscape.org/) -->

<svg
   xmlns:dc="http://purl.org/dc/elements/1.1/"
   xmlns:cc="http://creativecommons.org/ns#"
   xmlns:rdf="http://www.w3.org/1999/02/22-rdf-syntax-ns#"
   xmlns:svg="http://www.w3.org/2000/svg"
   xmlns="http://www.w3.org/2000/svg"
   xmlns:sodipodi="http://sodipodi.sourceforge.net/DTD/sodipodi-0.dtd"
   xmlns:inkscape="http://www.inkscape.org/namespaces/inkscape"
   width="512"
   height="512"
   id="svg4778"
   version="1.1"
   inkscape:version="0.48.1 r9760"
   sodipodi:docname="novacut-solo-brandmark_BLACK+WHITE_FINAL-SVG.svg"
   inkscape:export-filename="/home/izo/Pictures/Client_Work/Novacut/Final-Artwork/web/PNG/novacut-solo-brandmark_BLACK+WHITE_FINAL-PNG-300dpi.png"
   inkscape:export-xdpi="300.05859"
   inkscape:export-ydpi="300.05859">
  <defs
     id="defs4780">
    <inkscape:path-effect
       effect="spiro"
       id="path-effect5868"
       is_visible="true" />
  </defs>
  <sodipodi:namedview
     id="base"
     pagecolor="#ffffff"
     bordercolor="#666666"
     borderopacity="1.0"
     inkscape:pageopacity="0.0"
     inkscape:pageshadow="2"
     inkscape:zoom="1"
     inkscape:cx="233.49618"
     inkscape:cy="280"
     inkscape:current-layer="layer1"
     inkscape:document-units="px"
     showgrid="false"
     inkscape:window-width="1614"
     inkscape:window-height="1026"
     inkscape:window-x="66"
     inkscape:window-y="24"
     inkscape:window-maximized="1"
     showguides="false"
     inkscape:guide-bbox="true">
    <inkscape:grid
       type="xygrid"
       id="grid2994"
       empspacing="4"
       visible="true"
       enabled="true"
       snapvisiblegridlinesonly="true" />
    <sodipodi:guide
       orientation="1,0"
       position="256,88"
       id="guide3002" />
    <sodipodi:guide
       orientation="0,1"
       position="592,256"
       id="guide3004" />
    <sodipodi:guide
       position="0,0"
       orientation="0,512"
       id="guide3006" />
    <sodipodi:guide
       position="512,0"
       orientation="-512,0"
       id="guide3008" />
    <sodipodi:guide
       position="512,512"
       orientation="0,-512"
       id="guide3010" />
    <sodipodi:guide
       position="0,512"
       orientation="512,0"
       id="guide3012" />
  </sodipodi:namedview>
  <metadata
     id="metadata4783">
    <rdf:RDF>
      <cc:Work
         rdf:about="">
        <dc:format>image/svg+xml</dc:format>
        <dc:type
           rdf:resource="http://purl.org/dc/dcmitype/StillImage" />
        <dc:title></dc:title>
      </cc:Work>
    </rdf:RDF>
  </metadata>
  <g
     id="layer1"
     inkscape:label="Layer 1"
     inkscape:groupmode="layer"
     transform="translate(0,32)">
    <path
       transform="matrix(1.0666667,0,0,1.0666667,-85.333334,-32.000001)"
       style="fill:#000000;fill-opacity:1;stroke:none"
       d="M 545,240 C 545,364.26407 444.26407,465 320,465 195.73593,465 95,364.26407 95,240 95,115.73593 195.73593,15 320,15 444.26407,15 545,115.73593 545,240 z"
       id="path5924" />
    <path
       id="path4027"
       transform="matrix(2.193362,0,0,2.193362,-1505.7305,-124.45147)"
       style="fill:#ffffff;fill-opacity:1;stroke:none"
       d="m 849.94235,230.95239 c 0,7.41996 -6.01506,13.43503 -13.43503,13.43503 -7.41996,0 -13.43502,-6.01507 -13.43502,-13.43503 0,-7.41996 6.01506,-13.43503 13.43502,-13.43503 7.41997,0 13.43503,6.01507 13.43503,13.43503 z M 783.2814,86.702613 c 0,7.41996 -6.01506,13.435027 -13.43503,13.435027 -7.41996,0 -13.43502,-6.015067 -13.43502,-13.435027 0,-7.41996 6.01506,-13.43503 13.43502,-13.43503 7.41997,0 13.43503,6.01507 13.43503,13.43503 z m -24.87006,18.485097 0,106.56252 21.93749,0 0,-71.34375 0.31251,0 17.24999,27.78124 0,-36.9375 -16.21875,-26.06251 -23.28124,0 z m 68.06249,0 0,71.50001 -0.3125,0 -17.25,-27.75 0,36.9375 16.0625,25.87501 23.4375,0 0,-106.56252 -21.9375,0 z" />
  </g>
</svg>
